<svg width="80" height="75" viewBox="0 0 80 75" fill="none" xmlns="http://www.w3.org/2000/svg">
<mask id="mask0_609_3861" style="mask-type:luminance" maskUnits="userSpaceOnUse" x="-3" y="-8" width="84" height="83">
<path d="M80.1055 -7.88733H-2.29453V74.5127H80.1055V-7.88733Z" fill="white"/>
</mask>
<g mask="url(#mask0_609_3861)">
<path d="M10.4556 39.9369L11.7239 41.6589L13.3718 39.1866L15.4176 42.0336L19.0393 37.5103L24.3057 42.9425L34.3348 40.9313L42.6009 42.9425L47.5545 40.2264L56.9786 41.8538L62.6861 38.7033L65.745 40.9313L68.3218 40.0149C68.3218 40.0149 69.1865 50.5876 60.6102 55.0019C52.0337 59.4161 10.9156 59.8292 10.4556 39.9369Z" fill="#967439"/>
<path d="M10.4556 39.9369L11.7239 41.6589L13.3718 39.1866L15.4176 42.0336L19.0393 37.5103L24.3057 42.9425L34.3348 40.9313L42.6009 42.9425L47.5545 40.2264L56.9786 41.8538L62.6861 38.7033L65.745 40.9313L68.3218 40.0149C68.3218 40.0149 69.1865 50.5876 60.6102 55.0019C52.0337 59.4161 10.9156 59.8292 10.4556 39.9369Z" stroke="#68502C" strokeWidth="0.640523" strokeLinecap="round" strokeLinejoin="round"/>
<path d="M51.3554 32.465C51.3554 32.465 54.1382 29.2129 59.015 30.4186C65.9604 32.1355 70.8746 37.9397 70.5268 39.8059C70.2213 41.4448 62.8028 39.5608 57.5966 41.4714C52.3906 43.3822 47.989 35.6621 51.3554 32.465Z" fill="#FFAA12"/>
<path d="M52.0123 39.8663C51.1551 38.1384 51.1136 36.0947 52.4329 34.8418C52.4329 34.8418 54.8708 31.9914 59.1454 33.0479C64.4486 34.3591 68.4013 38.3904 69.1275 40.487C69.9366 40.4025 70.4512 40.2126 70.5268 39.806C70.8752 37.9398 65.9605 32.1349 59.0158 30.4176C54.1387 29.2124 51.3548 32.4645 51.3548 32.4645C49.3926 34.3296 50.0711 37.7341 52.0123 39.8663Z" fill="#FBCA1D"/>
<path d="M62.5087 33.3159C62.5087 33.3159 58.2309 30.8734 55.0837 32.1416" stroke="#FDE63B" strokeWidth="0.885156" strokeLinecap="round" strokeLinejoin="round"/>
<path d="M51.3554 32.465C51.3554 32.465 54.1382 29.2129 59.015 30.4186C65.9604 32.1355 70.8746 37.9397 70.5268 39.8059C70.2213 41.4448 62.8028 39.5608 57.5966 41.4714C52.3905 43.3822 47.989 35.6621 51.3554 32.465Z" stroke="#CE7500" strokeWidth="0.64375" stroke-miterlimit="10"/>
<path d="M23.7464 29.7452C23.7464 29.7452 20.4926 26.964 15.8619 28.9115C9.26704 31.6852 5.31269 38.1815 5.94591 39.9712C6.50194 41.5429 13.5385 38.5309 18.9779 39.6109C24.4173 40.6908 27.5679 32.3813 23.7464 29.7452Z" fill="#FFAA12"/>
<path d="M24.2459 37.1583C24.8246 35.3184 24.5487 33.2931 23.0509 32.2602C23.0509 32.2602 20.2005 29.8224 16.1414 31.5292C11.1058 33.6473 7.82626 38.2429 7.43428 40.4268C6.62187 40.4688 6.084 40.3612 5.94619 39.9711C5.31251 38.1817 9.26728 31.6845 15.8615 28.9106C20.4926 26.9634 23.7473 29.7443 23.7473 29.7443C25.975 31.2825 25.8329 34.7509 24.2459 37.1583Z" fill="#FBCA1D"/>
<path d="M17.4961 30.0933C17.4961 30.0933 13.6544 30.9247 10.382 34.5931" stroke="#FDE63B" strokeWidth="0.885156" strokeLinecap="round" strokeLinejoin="round"/>
<path d="M23.9759 29.9901C23.9759 29.9901 20.7221 27.2088 16.0914 29.1563C9.49653 31.9301 5.54218 38.4264 6.1754 40.216C6.73144 41.7877 13.7679 38.7758 19.2074 39.8557C24.6468 40.9357 27.7974 32.6262 23.9759 29.9901Z" stroke="#CE7500" strokeWidth="0.64375" stroke-miterlimit="10"/>
<path d="M18.2838 47.5859C18.2838 55.5423 27.1035 63.2662 37.9832 63.2662C48.8629 63.2662 57.6826 55.5423 57.6826 47.5859C57.6826 36.7168 51.0599 24.0061 37.9832 24.0061C25.0707 24.0061 18.2838 36.8776 18.2838 47.5859Z" fill="#FBCA1D"/>
<path d="M23.9574 38.1442C23.9574 42.2342 29.8034 45.0689 37.9832 45.0689C46.1629 45.0689 52.0088 42.2342 52.0088 38.1442C52.0088 33.5471 45.7076 29.3682 37.9832 29.3682C30.27 29.3682 23.9574 33.3678 23.9574 38.1442Z" fill="#FBDF39"/>
<path d="M23.4744 31.5339C25.3961 35.4429 30.7888 38.858 37.9761 38.858C45.2114 38.858 51.2335 36.2032 53.1123 32.2557C48.9907 26.2682 44.6103 26.2682 37.9761 26.2682C31.4071 26.2682 27.4878 27.4712 23.4744 31.5339Z" fill="#FFA912"/>
<path d="M18.2833 47.5853C18.2833 55.5418 27.103 63.2656 37.9827 63.2656C48.8624 63.2656 57.6821 55.5418 57.6821 47.5853C57.6821 36.7163 51.0594 24.0057 37.9827 24.0057C25.0702 24.0057 18.2833 36.877 18.2833 47.5853Z" stroke="#CE7500" strokeWidth="0.64375" stroke-miterlimit="10"/>
<path d="M24.1405 23.767C23.5232 29.8974 29.5873 35.8932 37.7297 36.713C45.8722 37.533 53.0099 32.8663 53.6272 26.7358C54.4705 18.3612 50.4395 8.66968 40.6526 7.68411C30.9889 6.71109 24.9713 15.5161 24.1405 23.767Z" fill="#FBCA1D"/>
<path d="M26.8457 21.7975C26.4189 26.0368 32.1575 29.682 38.6122 30.4487C46.7952 31.4205 51.1171 28.3246 51.544 24.0853C52.1271 18.2944 48.296 10.0842 40.5226 9.3015C32.8468 8.52863 27.4203 16.0921 26.8457 21.7975Z" fill="#FDE63B"/>
<path d="M30.6246 14.762C30.3606 17.3831 34.3208 19.9283 39.4696 20.4468C44.6186 20.9652 49.0067 19.2607 49.2705 16.6395C49.5345 14.0183 45.6632 9.86406 40.5115 9.37459C35.2038 8.87015 30.8885 12.1408 30.6246 14.762Z" fill="#FCFC9D"/>
<path d="M26.7449 31.1197C24.9005 29.174 23.9091 26.0655 24.1406 23.7675C24.9714 15.5166 30.9889 6.7116 40.6527 7.68461C50.4394 8.67013 54.4703 18.3618 53.6271 26.7364C53.4108 28.8847 52.394 30.8531 50.8137 32.4687C50.8137 32.4687 50.6094 32.6857 50.2508 33.0085" stroke="#CE7500" strokeWidth="0.64375" strokeLinecap="round" strokeLinejoin="round"/>
<path d="M29.4621 22.7114C29.2782 24.5384 30.2517 26.1327 31.6366 26.2721C33.0213 26.4116 34.2933 25.0435 34.4772 23.2165C34.6612 21.3895 33.6878 19.7953 32.3029 19.6559C30.918 19.5164 29.6461 20.8843 29.4621 22.7114Z" fill="#111111"/>
<path d="M30.1281 23.5123C30.0614 24.175 30.6664 25.5286 31.699 25.6326C32.7316 25.7366 33.5941 24.5308 33.6608 23.8682C33.7679 22.805 32.9331 23.7335 31.9005 23.6295C30.8679 23.5255 30.2399 22.4009 30.1281 23.5123Z" fill="#474848"/>
<path d="M30.7542 21.1925C30.7004 21.7261 31.3604 21.3616 32.1212 21.4382C32.8821 21.5147 33.4544 22.0154 33.5095 21.4699C33.5436 21.13 32.9941 20.3992 32.2333 20.3226C31.4725 20.246 30.7885 20.8528 30.7542 21.1925Z" fill="#F5F5F5"/>
<path d="M42.3355 24.008C42.1516 25.835 43.1252 27.4293 44.5102 27.5687C45.8949 27.7082 47.1669 26.3401 47.3508 24.5132C47.5347 22.6861 46.5611 21.0918 45.1761 20.9524C43.7912 20.8129 42.5195 22.1809 42.3355 24.008Z" fill="#111111"/>
<path d="M43.0036 24.8086C42.9369 25.4714 43.5419 26.825 44.5745 26.929C45.6071 27.033 46.4696 25.8272 46.5363 25.1646C46.6434 24.1014 45.8088 25.0299 44.7762 24.9259C43.7436 24.822 43.1154 23.6973 43.0036 24.8086Z" fill="#474848"/>
<path d="M43.63 22.4883C43.5763 23.0219 44.2362 22.6574 44.9971 22.734C45.7579 22.8106 46.3304 23.3113 46.3854 22.7658C46.4196 22.4259 45.87 21.695 45.1091 21.6184C44.3483 21.5419 43.6643 22.1486 43.63 22.4883Z" fill="#F5F5F5"/>
<path d="M40.5843 27.0589C40.5843 27.0589 41.1028 28.5507 40.4231 30.4996C39.8324 32.1935 38.3606 34.985 36.1572 34.5515C33.2199 33.9738 33.2259 29.5823 36.174 25.679L40.5843 27.0589Z" fill="#FBCA1D"/>
<path d="M34.9712 28.3071C34.8662 29.2261 35.0407 31.1075 35.5223 31.9157C35.9652 32.6589 36.5535 33.6844 37.1017 33.7319C37.616 33.7763 38.3158 33.4036 39.3388 32.1151C39.9667 31.3241 40.4656 29.7721 40.5766 28.8011C40.7782 27.0385 39.6169 24.7991 38.122 24.6699C36.7501 24.5514 35.4126 26.2287 35.0469 27.8687C35.0136 28.0156 34.9879 28.1617 34.9712 28.3071Z" fill="#943903"/>
<path d="M35.1931 27.899C37.1271 28.5375 38.6223 28.0417 39.1201 27.8838C39.0735 28.288 40.9418 27.8785 40.3771 29.0249C39.8124 30.1714 38.1658 31.7613 37.7052 32.3593C37.2834 32.9071 37.0771 32.8289 36.8559 32.255C36.733 31.9358 34.8899 28.4528 35.1931 27.899Z" fill="#9B0B0B"/>
<path d="M35.1931 27.899C37.1271 28.5375 38.6223 28.0417 39.1201 27.8838C39.0735 28.288 40.9418 27.8785 40.3771 29.0249C39.8124 30.1714 38.1658 31.7613 37.7052 32.3593C37.2834 32.9071 37.0771 32.8289 36.8559 32.255C36.733 31.9358 34.8899 28.4528 35.1931 27.899Z" stroke="#CE7500" strokeWidth="0.241406"/>
<path d="M35.3344 28.5263L37.5051 29.0308C37.7929 29.11 37.9882 29.1228 38.3436 29.1154L40.4116 29.0392C40.6493 28.8229 40.7824 28.527 40.7743 28.218C40.7314 26.5518 39.7252 24.6918 38.3002 24.5483C36.8575 24.4029 35.4848 26.0669 35.1316 27.7118C35.0858 27.9948 35.1582 28.2853 35.3344 28.5263Z" fill="#F78D15"/>
<path d="M37.0046 24.872C37.3672 26.6106 37.6345 27.273 37.5165 29.0155L37.5176 29.0184C37.7249 29.0791 38.0454 29.1263 38.3541 29.0997C38.8888 27.2479 39.0487 26.7806 39.5218 25.1268C39.1722 24.7964 38.7625 24.5788 38.3101 24.5332C37.8579 24.4877 37.4145 24.6193 37.0046 24.872Z" fill="#F1B623"/>
<path d="M10.3507 39.7155C10.3507 60.3107 23.6071 72.6997 39.5624 72.6997C55.4196 72.6997 68.6101 60.4636 68.771 40.0953L65.4235 43.3302L63.4375 40.855L61.4499 45.0763L59.052 47.9732L55.9877 44.0335L54.8032 45.0763L50.7251 41.6838L48.0422 41.1044L46.5053 44.0335V47.2281L43.6551 45.49L41.6691 47.3118L41.0061 49.6293L35.5438 42.9166L32.2414 44.8623C32.2414 44.8623 31.8197 41.5132 29.668 38.7837L24.1221 40.6892L22.6318 44.6627L19.2393 47.3938L17.3466 42.4273L15.5972 43.6842L14.6863 46.7324L10.3507 39.7155Z" fill="#EBE9E0"/>
<path d="M10.3507 39.7157C10.3507 60.3109 23.6071 72.6998 39.5624 72.6998C55.4196 72.6998 68.6101 60.4638 68.771 40.0955L67.1278 41.9946C65.4895 59.9504 53.4546 69.9494 39.5624 69.9494C25.9536 69.9494 14.1118 60.3785 12.1081 43.0809L10.3507 39.7157Z" fill="#FBF5E6"/>
<g opacity="0.32">
<path d="M10.3503 39.7157C10.3503 60.3109 23.6067 72.6998 39.562 72.6998C55.4696 72.6998 66.5675 60.8162 68.4165 44.9446C64.1452 54.8857 55.1826 60.5394 44.9872 60.5394C34.9383 60.5394 26.0883 55.0482 21.7462 45.3759L19.2388 47.394L17.3462 42.4275L15.5968 43.6844L14.6859 46.7326L10.3503 39.7157Z" fill="#B7B49E"/>
</g>
<path d="M28.7589 41.7976C30.9686 44.5271 31.3661 48.2125 31.3661 48.2125L35.1143 45.9996L41.6484 53.6345L42.7734 49.8042L44.1606 48.5441L47.9604 50.5059V45.5732L49.0805 43.8656L50.8701 44.6059L50.7269 42.488L48.0441 41.9086L46.5071 44.8377V48.0323L43.6569 46.2942L41.6709 48.116L41.0079 50.4335L35.5457 43.7208L32.2432 45.6665C32.2432 45.6665 31.8216 42.3174 29.6698 39.5879L28.7589 41.7976Z" fill="#FBF5E6"/>
<path d="M10.3507 40.5203C10.3507 41.7467 10.3974 42.944 10.4907 44.1108L14.0088 49.6551L15.6793 49.0822L16.7415 45.8329L18.6856 50.7994L23.5443 47.3714L25.0749 43.3979L28.7571 41.7982C30.9668 44.5277 31.3643 48.2131 31.3643 48.2131L35.1125 46.0003L41.6466 53.6351L42.7715 49.8048L44.1588 48.5447L47.9586 50.5065V45.5738L49.0787 43.8662L50.8683 44.6065L54.7356 47.8382L55.7914 46.9562L58.9393 50.896L62.3689 47.1944L63.7658 44.2605L65.2899 46.2722L68.6873 43.3512C68.7356 42.5481 68.7646 41.7306 68.771 40.9001L65.4235 44.135L63.4375 41.6598L61.4499 45.8812L59.052 48.778L55.9877 44.8383L54.8032 45.8812L50.7251 42.4886L48.0422 41.9092L46.5053 44.8383V48.0329L43.6551 46.2948L41.6691 48.1166L41.0061 50.4341L35.5438 43.7214L32.2414 45.6671C32.2414 45.6671 31.8197 42.318 29.668 39.5885L24.1221 41.494L22.6318 45.4675L19.2393 48.1987L17.3466 43.2321L15.5972 44.489L14.6863 47.5372L10.3507 40.5203Z" fill="#FBF5E6"/>
<path d="M10.3504 39.7157C10.3504 60.3104 23.6067 73.0212 39.5622 73.0212C55.5175 73.0212 68.7739 60.3104 68.7739 39.7157" stroke="#B7B49E" strokeWidth="0.64375" strokeLinecap="round" strokeLinejoin="round"/>
<path d="M68.7334 39.5146C68.7334 39.6423 65.3832 43.1291 65.3832 43.1291L63.3972 40.6539L61.4096 44.8753L59.0116 47.7722L55.9474 43.8324L54.7629 44.8753L50.6847 41.4827L48.0019 40.9034L46.465 43.8324V47.027L43.6148 45.2889L41.6288 47.1107L40.9657 49.4282L35.5037 42.7155L32.2012 44.6613C32.2012 44.6613 31.7796 41.3121 29.6277 38.5826L24.0818 40.4881L22.5915 44.4617L19.1991 47.1928L17.3063 42.2263L15.5569 43.4832L14.646 46.5313L10.3102 39.5141" stroke="#B7B49E" strokeWidth="0.64375" strokeLinecap="round" strokeLinejoin="round"/>
<path d="M40.1515 49.5045L42.4461 54.3999L44.6239 55.174L46.7562 57.063L46.621 58.0557L45.7592 58.2091L43.9269 56.212L42.9755 55.755L42.5014 57.8246L41.5961 58.9241L40.6927 59.2771L40.6832 57.8972L41.2865 56.6331L41.5107 54.7351L39.1132 49.7841L40.1515 49.5045Z" fill="#FCF5E6"/>
<path d="M41.2463 48.9855L43.1323 54.0748L42.1702 57.187L41.4107 58.1802" stroke="#B7B49E" strokeWidth="0.502097" strokeLinecap="round" strokeLinejoin="round"/>
<path d="M40.3101 48.7343L42.6387 53.9846L42.1712 57.1872L41.5108 58.1985" stroke="#B7B49E" strokeWidth="0.502097" strokeLinecap="round" strokeLinejoin="round"/>
<path d="M43.1333 54.0746L44.9573 54.8163L46.5 56.6467" stroke="#B7B49E" strokeWidth="0.412" strokeLinecap="round" strokeLinejoin="round"/>
<path d="M43.2057 53.6791L45.0297 54.4207L46.5 56.6469" stroke="#B7B49E" strokeWidth="0.412" strokeLinecap="round" strokeLinejoin="round"/>
</g>
</svg>
